<?xml version="1.0" encoding="utf-8"?>
<!-- Generator: Adobe Illustrator 24.0.0, SVG Export Plug-In . SVG Version: 6.00 Build 0)  -->
<svg version="1.1" xmlns="http://www.w3.org/2000/svg" xmlns:xlink="http://www.w3.org/1999/xlink" x="0px" y="0px"
	 viewBox="0 0 64 64" enable-background="new 0 0 64 64" xml:space="preserve">
<g id="Captions">
</g>
<g id="Icons">
	<g>
		<g>
			<path fill="#0A5078" d="M19,60L19,60c-3.866,0-7-3.134-7-7V43c0-3.866,3.134-7,7-7h0c3.866,0,7,3.134,7,7v10
				C26,56.866,22.866,60,19,60z"/>
		</g>
		<g>
			<path fill="#0A5078" d="M45,60L45,60c-3.866,0-7-3.134-7-7V43c0-3.866,3.134-7,7-7h0c3.866,0,7,3.134,7,7v10
				C52,56.866,48.866,60,45,60z"/>
		</g>
		<g>
			<g>
				<path fill="#00325A" d="M45,37h-3.592C39.369,38.223,38,40.449,38,43v10h7c3.866,0,7-3.134,7-7v-2C52,40.134,48.866,37,45,37z"
					/>
			</g>
			<g>
				<path fill="#00325A" d="M22.592,37H19c-3.866,0-7,3.134-7,7v2c0,3.866,3.134,7,7,7h7V43C26,40.449,24.631,38.223,22.592,37z"/>
			</g>
		</g>
		<g>
			<g>
				<rect x="30" y="20" fill="#FAB400" width="4" height="9"/>
			</g>
			<g>
				<path fill="#DC9600" d="M30,22.738C30.64,22.903,31.308,23,32,23s1.36-0.097,2-0.262V20h-4V22.738z"/>
			</g>
			<g>
				<path fill="#DC9600" d="M38,20h-2v-2h2c3.309,0,6-2.691,6-6v-2h-4V8h4c1.103,0,2,0.897,2,2v2C46,16.411,42.411,20,38,20z"/>
			</g>
			<g>
				<path fill="#DC9600" d="M28,20h-2c-4.411,0-8-3.589-8-8v-2c0-1.103,0.897-2,2-2h4v2h-4v2c0,3.309,2.691,6,6,6h2V20z"/>
			</g>
			<g>
				<path fill="#FAB400" d="M32,22L32,22c-4.418,0-8-3.582-8-8V4h16v10C40,18.418,36.418,22,32,22z"/>
			</g>
			<g>
				<path fill="#00A0C8" d="M41,6H23c-0.552,0-1-0.448-1-1v0c0-0.552,0.448-1,1-1h18c0.552,0,1,0.448,1,1v0C42,5.552,41.552,6,41,6z
					"/>
			</g>
			<g>
				<path fill="#00A0C8" d="M38,32H26v0c0-1.657,1.343-3,3-3h6C36.657,29,38,30.343,38,32L38,32z"/>
			</g>
			<g>
				<rect x="24" y="6" fill="#DC9600" width="16" height="1"/>
			</g>
			<g>
				<path fill="#BE7800" d="M32.448,9.908l1.021,2.069l2.283,0.332c0.41,0.06,0.574,0.564,0.277,0.853l-1.652,1.61l0.39,2.274
					c0.07,0.408-0.359,0.72-0.725,0.527L32,16.5l-2.042,1.074c-0.367,0.193-0.796-0.119-0.725-0.527l0.39-2.274l-1.652-1.61
					c-0.297-0.289-0.133-0.793,0.277-0.853l2.283-0.332l1.021-2.069C31.735,9.537,32.265,9.537,32.448,9.908z"/>
			</g>
			<g>
				<g>
					<path fill="#FAB400" d="M56,17h-6c-0.553,0-1-0.447-1-1s0.447-1,1-1h6c0.553,0,1,0.447,1,1S56.553,17,56,17z"/>
				</g>
				<g>
					<path fill="#FAB400" d="M51.999,24c-0.209,0-0.419-0.065-0.599-0.2l-4-3c-0.442-0.331-0.532-0.958-0.2-1.399
						c0.332-0.442,0.958-0.531,1.399-0.2l4,3c0.442,0.331,0.532,0.958,0.2,1.399C52.604,23.862,52.304,24,51.999,24z"/>
				</g>
				<g>
					<path fill="#FAB400" d="M55.999,27c-0.209,0-0.419-0.065-0.599-0.2l-1-0.75c-0.442-0.331-0.532-0.958-0.2-1.399
						c0.331-0.442,0.958-0.53,1.399-0.2l1,0.75c0.442,0.331,0.532,0.958,0.2,1.399C56.604,26.862,56.304,27,55.999,27z"/>
				</g>
				<g>
					<path fill="#FAB400" d="M44,27c-0.553,0-1-0.447-1-1v-2c0-0.553,0.447-1,1-1s1,0.447,1,1v2C45,26.553,44.553,27,44,27z"/>
				</g>
			</g>
			<g>
				<g>
					<path fill="#FAB400" d="M14,17H8c-0.553,0-1-0.447-1-1s0.447-1,1-1h6c0.553,0,1,0.447,1,1S14.553,17,14,17z"/>
				</g>
				<g>
					<path fill="#FAB400" d="M12.001,24c-0.305,0-0.604-0.138-0.801-0.4c-0.332-0.441-0.242-1.068,0.2-1.399l4-3
						c0.441-0.332,1.068-0.243,1.399,0.2c0.332,0.441,0.242,1.068-0.2,1.399l-4,3C12.42,23.935,12.21,24,12.001,24z"/>
				</g>
				<g>
					<path fill="#FAB400" d="M8.001,27c-0.305,0-0.604-0.138-0.801-0.4c-0.332-0.441-0.242-1.068,0.2-1.399l1-0.75
						c0.44-0.331,1.068-0.243,1.399,0.2c0.332,0.441,0.242,1.068-0.2,1.399l-1,0.75C8.42,26.935,8.21,27,8.001,27z"/>
				</g>
				<g>
					<path fill="#FAB400" d="M20,27c-0.553,0-1-0.447-1-1v-2c0-0.553,0.447-1,1-1s1,0.447,1,1v2C21,26.553,20.553,27,20,27z"/>
				</g>
			</g>
		</g>
		<g>
			<path fill="#0A5078" d="M45,36h-5c-2.209,0-4,1.791-4,4v0h-8v0c0-2.209-1.791-4-4-4h-5c-3.866,0-7,3.134-7,7v2
				c0,3.866,3.134,7,7,7h26c3.866,0,7-3.134,7-7v-2C52,39.134,48.866,36,45,36z"/>
		</g>
		<g>
			<circle fill="#00A0C8" cx="44" cy="40" r="2"/>
		</g>
		<g>
			<circle fill="#00A0C8" cx="44" cy="48" r="2"/>
		</g>
		<g>
			<circle fill="#00A0C8" cx="40" cy="44" r="2"/>
		</g>
		<g>
			<circle fill="#00A0C8" cx="48" cy="44" r="2"/>
		</g>
		<g>
			<circle fill="#00325A" cx="20" cy="40" r="2"/>
		</g>
		<g>
			<circle fill="#00325A" cx="20" cy="48" r="2"/>
		</g>
		<g>
			<circle fill="#00325A" cx="16" cy="44" r="2"/>
		</g>
		<g>
			<circle fill="#00325A" cx="24" cy="44" r="2"/>
		</g>
		<g>
			<path fill="#C80A50" d="M33,48h-2c-0.552,0-1-0.448-1-1l0,0c0-0.552,0.448-1,1-1h2c0.552,0,1,0.448,1,1l0,0
				C34,47.552,33.552,48,33,48z"/>
		</g>
	</g>
</g>
</svg>
