<svg xmlns="http://www.w3.org/2000/svg" viewBox="0 0 512 512"><title>Training_Gloves</title><g id="artwork"><g id="_02_training_gloves" data-name="02_training_gloves"><path d="M319.24,397.41l-94.45-65.19,13.77-2.53s40.72-62.77,42.64-128.88c0,0-26.58-11.32-38.58-5.79l-17.2,59.48L196.14,103.42l-44.53,6.88-2.82-10.89-44,8.63,1.58,10.55-43.83,9.12.74,10.88-40.91,7.19a4.11,4.11,0,0,0-3.39,4h0L52.25,328.33s6.21,18.9,21,31.64l1-.18,9.65,52.67a15.71,15.71,0,0,0,18.28,12.62l84-15.39L257.63,459a15.72,15.72,0,0,0,21.85-4Z" style="fill:#dcd3d4"/><rect x="189.74" y="319.24" width="101.59" height="69.76" transform="translate(243.76 -73.96) rotate(34.62)" style="fill:#dc4038"/><rect x="278.49" y="368.36" width="66.43" height="69.76" transform="translate(284.26 -105.69) rotate(34.62)" style="fill:#4966a2"/><path d="M328.6,110.71,225.9,260.46s-9,17.76-7.5,37.25l138.28,95.46s73.18-15.6,121.28-61c0,0-10.79-26.81-23.18-31.38l-54.23,29.9,86.13-127.54-36.35-26.62,5.7-9.7-37.22-25-6.33,8.58L375,125.88l-7.17,8.22L331,108.28Z" style="fill:#dcd3d4"/><path d="M301,254.77s17.8-11.21,50.91,10,60.1-30.25,60.1-30.25l40.59-58.8,33.66,24.65L400,332.43s-31.35,8.76-41.15,0C358.87,332.46,383.28,299.7,301,254.77Z" style="fill:#e08476"/><path d="M279.15,269.11,291,251.74l45.23,32.42c11.85,6,26.69,23.4,19.62,52.84l-7.62,1.65c5.11-21.27-21.07-35.56-21.83-35.93l-.72-.34Z" style="fill:#dc4038"/><path d="M49.32,106.61,82.59,285.13s6.21,18.9,21,31.64L268.9,286.49s40.72-62.78,42.64-128.88c0,0-26.58-11.33-38.58-5.8l-17.2,59.49L226.48,60.21,182,67.1l-2.83-10.9-44,8.64,1.59,10.55L92.88,84.5l.74,10.89-44.3,7.78Z" style="fill:#ffeef0"/><path d="M130.65,230.19s4.66-20.51,43.07-28.93,21.1-63.88,21.1-63.88L182,67.1l41.23-6.38,32.38,154.4s-16,28.36-29.08,29.11C226.48,244.23,220.57,203.81,130.65,230.19Z" style="fill:#f3b5af"/><path d="M257.24,215.12s-16,28.36-29.08,29.11c0,0-14.45-12.1-27.25-19.58,17.33-14.4,25.44-34.67,25.44-60.77,0-37.11-11.21-79.09-30.89-97.88l29.4-5.28Z" style="fill:#e08476"/><rect x="110.48" y="307.04" width="101.59" height="69.76" transform="translate(-58.98 34.66) rotate(-10.38)" style="fill:#f2463e"/><rect x="213.12" y="291.46" width="66.43" height="69.76" transform="translate(-54.78 49.74) rotate(-10.38)" style="fill:#4966a2"/><path d="M77.81,264.13,73.88,243.5,176.44,224c12.66-4.1,35.42-2.33,51.24,23.49L223.46,254c-11.43-18.65-40.05-10.24-40.85-10l-.75.26Z" style="fill:#dc4038"/><rect x="142.49" y="326.52" width="12" height="36.07" transform="translate(-59.66 32.4) rotate(-10.38)" style="fill:#142546"/><rect x="124.65" y="329.79" width="12" height="36.07" transform="translate(-60.54 29.24) rotate(-10.38)" style="fill:#142546"/><path d="M486.73,193.13l-26-17.93A14.59,14.59,0,0,0,456,156.71l-23.72-16.37a14.53,14.53,0,0,0-19,2.1l-26-17.94a14.6,14.6,0,0,0-18.06,1.2l-26.48-18.27a14.57,14.57,0,0,0-20.27,3.72L299,145.21l-19.24-3.56a13.38,13.38,0,0,0-15.53,10.23l-7.68,33.87L234.63,66.17a14.59,14.59,0,0,0-17-11.71l-31,5.68a14.58,14.58,0,0,0-16.44-9.7l-28.35,5.2a14.56,14.56,0,0,0-11.93,14.9l-31,5.69A14.59,14.59,0,0,0,86.91,89.85l-31.63,5.8a14.6,14.6,0,0,0-11.72,17L72.77,272a88.86,88.86,0,0,0,25.3,47.68l13.31,72.65,89-16.3,55.88,38.56h0l64.54,44.56,41.76-60.49,11.65-3a240.64,240.64,0,0,0,78.08-35.57l29-20.09a13.44,13.44,0,0,0,3.41-18.64L469,298.69a13.38,13.38,0,0,0-18.21-3.75l-29.38,18.52,69.06-100A14.6,14.6,0,0,0,486.73,193.13ZM332.37,118a2.58,2.58,0,0,1,3.59-.66l26.14,18L314,205l9.87,6.81,53-76.79a2.58,2.58,0,0,1,3.59-.65l25.85,17.84-54.48,78.91,9.88,6.82,60.11-87.08a2.59,2.59,0,0,1,1.66-1.07,2.56,2.56,0,0,1,1.93.41l23.73,16.38a2.58,2.58,0,0,1,.65,3.59l-52.4,75.91C386.59,261.79,366,267,349.47,258.24c-.43-.22-.86-.46-1.29-.7a81.54,81.54,0,0,0-51.73-10.18,240,240,0,0,0,14.95-50.43l6.28-34.67a13.45,13.45,0,0,0-6.3-13.88ZM221,360.09l-5.2-28.4-5.21-28.41,53.54-9.81,10.41,56.82Zm-37.29-130.6a32.49,32.49,0,0,1,24.48,5.25,32.93,32.93,0,0,1,8.93,9.19,44.7,44.7,0,0,0-31.89-6.16l-103,18.87-1.52-8.27Zm118.1,117.22-18-12.43-8.54-46.66,5.88-9.88,46.23,31.91a32.77,32.77,0,0,1,12.8,36.15A32.76,32.76,0,0,1,301.76,346.71Zm50.57-20a44.73,44.73,0,0,0-18.19-26.92L287,267.24q2-3.75,3.85-7.56l48.06,33.18a32.76,32.76,0,0,1,13.41,33.84ZM275.92,154.53a1.42,1.42,0,0,1,1.64-1.08l27.17,5a1.42,1.42,0,0,1,1.14,1.65L299.6,194.8A228.36,228.36,0,0,1,271,271.16l-5.89,9.92-39.72,7.27c.31-.42.63-.84.93-1.28a44.41,44.41,0,0,0,7.19-33.46,47,47,0,0,0-1.28-5.17c21.21-9,28.5-28.57,30.62-36.44a1.27,1.27,0,0,1,.06-.18l.06-.28c.34-1.32.53-2.26.6-2.67Zm-56.1-88.27a2.59,2.59,0,0,1,3,2.07l26.23,143.2a7.34,7.34,0,0,0,.7,2c-2.82,7.28-9.18,18.5-22.53,24a44.8,44.8,0,0,0-45.73-19.85l-42,7.69a70.55,70.55,0,0,1,28.89-15.84c.59-.16,1.17-.33,1.75-.51,23.69-7.26,38.14-31.39,33.61-56.13l-14.84-81ZM57.44,107.45l31.24-5.72L103.94,185l11.8-2.16L98.92,91A2.6,2.6,0,0,1,101,88l30.89-5.66,17.28,94.32L161,174.53,141.91,70.45a2.53,2.53,0,0,1,.41-1.93A2.6,2.6,0,0,1,144,67.44l28.35-5.19a2.57,2.57,0,0,1,3,2.07L192,155.06c3.44,18.75-7.45,37-25.32,42.5-.46.14-.93.28-1.4.4a81.18,81.18,0,0,0-44.88,30.93l-41.89,7.67-23.1-126.1A2.59,2.59,0,0,1,57.44,107.45Zm26.87,161,103-18.88A32.73,32.73,0,0,1,222,266.12a32.72,32.72,0,0,1-26.52,27.72h0l-23.52,4.31L105.6,310.31a77,77,0,0,1-21-40.43Zm26.3,53.14,5.53-1,82.6-15.13,5.2,28.41,5.21,28.41L121,378.4Zm152.45,83.16-46-31.74,71.39-13.08-1.64-9,9.06,6.25-23.79,34.46Zm54.67,37.75-44.8-30.93,8.79-12.72,24-34.81L350.54,395ZM457.15,305.09a1.42,1.42,0,0,1,1.93.4l15.67,22.76a1.43,1.43,0,0,1-.37,2l-28.95,20.09a228.67,228.67,0,0,1-74.2,33.8L360.05,387,326.81,364a44.62,44.62,0,0,0,30.33-18.82l1.44-2.1,0-.1c.47-.77.9-1.55,1.32-2.34a49.91,49.91,0,0,0,18.88,3.7,58.73,58.73,0,0,0,28-7.54c.17-.08.32-.18.48-.27.68-.4,1.27-.75,1.72-1l1.93-1.24Zm23.41-98.5-82.7,119.82a7.16,7.16,0,0,0-.93,1.93c-7.14,3.17-19.5,6.59-32.9,1A44.78,44.78,0,0,0,345.74,283l-35.13-24.25A70.81,70.81,0,0,1,342.24,268c.53.3,1.06.6,1.6.88a48.17,48.17,0,0,0,22.63,5.64,49.69,49.69,0,0,0,40.83-21.57l46.76-67.74L479.91,203a2.56,2.56,0,0,1,.65,3.58Z" style="fill:#142546"/></g></g></svg>